<svg xmlns="http://www.w3.org/2000/svg" viewBox="0 0 397.8 311.2" aria-hidden="true">
  <linearGradient id="solana-grad" x1="360.9" y1="351.4" x2="141.1" y2="-69.2" gradientUnits="userSpaceOnUse">
    <stop offset="0" stop-color="#00FFA3"/>
    <stop offset="1" stop-color="#DC1FFF"/>
  </linearGradient>
  <path fill="url(#solana-grad)" d="M64.6 237.9c2.4-2.4 5.7-3.8 9.2-3.8h317.4c5.8 0 8.7 7 4.6 11.1l-62.7 62.7c-2.4 2.4-5.7 3.8-9.2 3.8H6.5c-5.8 0-8.7-7-4.6-11.1l62.7-62.7z"/>
  <path fill="url(#solana-grad)" d="M64.6 3.8C67.1 1.4 70.4 0 73.8 0h317.4c5.8 0 8.7 7 4.6 11.1l-62.7 62.7c-2.4 2.4-5.7 3.8-9.2 3.8H6.5c-5.8 0-8.7-7-4.6-11.1L64.6 3.8z"/>
  <path fill="url(#solana-grad)" d="M330.3 120.1c-2.4-2.4-5.7-3.8-9.2-3.8H3.7c-5.8 0-8.7 7-4.6 11.1l62.7 62.7c2.4 2.4 5.7 3.8 9.2 3.8h317.4c5.8 0 8.7-7 4.6-11.1l-62.7-62.7z"/>
</svg>
