<svg xmlns="http://www.w3.org/2000/svg" viewBox="0 0 512 512" fill="#000000">
  <g>
    <path d="m354.1,163.8c-6.6-9.2-4.4-21.9 4.7-28.5l14.6-10.4c9.2-6.6 21.9-4.5 28.5,4.7 6.6,9.2 4.4,21.9-4.7,28.5l-14.6,10.4c-12.5,7.6-24.6,0.8-28.5-4.7z"/>
    <path d="m128.2,325.3c-18.9-25.7-25.9-57.6-20.7-89.1 5.2-31.5 22.4-59 48.4-77.6 53.6-38.3 128.4-25.9 166.7,27.7 6.6,9.2 4.4,21.9-4.7,28.5-9.2,6.5-21.9,4.4-28.5-4.7-25.2-35.3-74.5-43.4-109.7-18.2-17.1,12.2-28.4,30.4-31.8,51.1-3.4,20.7 1.4,41.5 13.6,58.6 6.6,9.2 4.6,22.1-4.7,28.5-9.5,6.3-22.3,3.8-28.6-4.8z"/>
    <path d="m48.8,382c-6.6-9.2-4.4-21.9 4.7-28.5l14.6-10.4c9.2-6.5 21.9-4.4 28.5,4.7 6.6,9.2 4.4,21.9-4.7,28.5l-14.6,10.4c-11.9,7.6-24.5,0.9-28.5-4.7z"/>
    <path d="m104.8,122.4l-10.4-14.6c-6.6-9.2-4.4-21.9 4.7-28.5 9.2-6.6 21.9-4.4 28.5,4.7l10.4,14.6c6.6,9.2 4.8,22.5-4.7,28.5-12,7.5-24.5,0.9-28.5-4.7z"/>
    <path d="m45.8,246.7l-17.7-2.9c-11.1-1.8-18.6-12.4-16.8-23.5 1.8-11.1 12.4-18.6 23.5-16.8l17.7,2.9c11.1,1.8 18.6,12.4 16.8,23.5-1.7,10-10.3,18.1-23.5,16.8z"/>
    <path d="m251.3,99.7c-11.1-1.8-18.6-12.4-16.8-23.5l2.9-17.7c1.8-11.1 12.4-18.6 23.5-16.8 11.1,1.8 18.6,12.4 16.8,23.5l-2.9,17.7c-1.7,10-11.7,18.7-23.5,16.8z"/>
    <path d="m141.1,469.3c-10.6-3.8-16.1-15.5-12.3-26.1 0.9-2.4 89.4-240.8 353.6-217.2 11.2,1 19.5,10.9 18.5,22.2-1,11.2-10.8,19.5-22.2,18.5-232.2-20.8-307.8,181.9-311.5,190.3-6.5,15.2-23.8,13.1-26.1,12.3z"/>
  </g>
</svg>
